Patient4_TMGait_0pt3_03_right_09_EMG.mot
version=1
nRows=13
nColumns=33
inDegrees=no
endheader
time	1LAddLong	2LGlutMax	3LGlutMed	4LIliopsoas	5LSemiMemb	6LBicFemLong	7LRecFem	8LVastMed	9LVastLat	10LGasMed	11LTibAnt	12lTibPost	13LPeroneusLong	14LSol	15LExtDigLong	16LFlexDigLong	17RAddLong	18RGlutMax	19RGlutMed	20RIliopsoas	21RSemiMemb	22RBicFemLong	23RRecFem	24RVastMed	25RVastLat	26RGasMed	27RTibAnt	28RTibPost	29RPeroneusLong	30RSol	31RExtDigLong	32RFlexDigLong
17.05	0.023956	0.15427	0.092621	0.012817	-0.01297	0.014954	-0.039368	0.007935	0.28534	-0.12421	0.00885	0.055084	0.12985	-0.014343	-0.028687	-0.001831	0.11322	0.51331	0.85281	0.042572	-0.093689	-0.048981	0.21378	0.041504	0.027161	-0.005035	-0.8963	0	0.19379	-0.054626	-0.00473	0.000458
17.051	0.030365	0.20798	0.052185	-0.001678	0.011749	0.15396	-0.049591	0.020752	0.31662	-0.079956	0.001068	-0.013428	0.34515	0.010834	-0.025787	-0.009308	0.19287	0.51956	1.0533	0.069122	-0.10452	-0.050964	0.19821	0.042877	0.023804	-0.002441	-0.35538	-0.003815	0.14435	-0.035553	-0.005188	-0.009155
17.052	0.020599	0.20584	0.03479	-0.006409	0.035248	0.24323	0.000916	0.021362	0.28381	-0.033417	-0.004883	-0.017548	-0.091248	0.093079	-0.078278	-0.007935	0.13947	0.53238	0.79254	0.096283	-0.11002	-0.059509	0.21011	-0.005341	0.009918	-0.005341	-0.043793	-0.002136	0.070496	0.015411	-0.007324	-0.007172
17.053	0.011444	0.16541	-0.060425	-0.017395	0.027008	0.3096	0.031891	0.018005	0.00885	-0.047302	0.011597	-0.005341	-0.25299	-0.018311	0.008087	-0.020752	0.051575	0.53024	0.74692	0.13458	-0.12024	-0.06073	0.22476	-0.051575	0.005341	-0.000153	0.29678	-0.002594	-0.006104	-0.027618	-0.005188	-0.002136
17.054	0.001526	0.10956	-0.046997	0.002747	0.010071	0.33493	0.10757	0.007477	-0.17303	-0.069885	0.014343	-0.000763	-0.11704	-0.088806	0.07782	-0.012512	-0.019836	0.53879	0.72525	0.10086	-0.10468	-0.051422	0.21881	-0.014496	0.012817	-0.006256	0.39536	-0.003357	-0.096436	0.031433	-0.002747	-0.001831
17.055	0.011902	-0.000916	-0.10056	-0.00473	0.009613	0.3067	0.15625	0.004883	-0.17853	-0.050964	0.009003	-0.012512	-0.083618	-0.02533	0.059357	-0.007019	-0.059662	0.46097	0.86624	0.063782	-0.1001	-0.04303	0.20325	-0.002441	0.031128	-0.012054	0.32623	-0.001678	-0.15823	0.097504	-0.008545	-0.010376
17.056	0.004425	-0.000458	-0.1857	-0.014191	0.007172	0.058289	0.11856	-0.002289	-0.16159	-0.063324	-0.009308	-0.015717	-0.023499	0.039825	0.021057	-0.011749	-0.10132	0.4628	0.58594	0.082703	-0.099792	-0.02121	0.18005	0.002136	0.023041	-0.010986	0.19867	-0.003357	-0.12451	0.16678	-0.003052	0.002441
17.057	0.005493	0.030823	-0.19775	-0.024414	0.008087	-0.25833	0.12222	0.00824	-0.25299	-0.013275	-0.003204	-0.013733	-0.1712	-0.001221	-0.037079	-0.005035	-0.056763	0.44998	0.5629	0.13153	-0.10117	-0.014801	0.19882	0.026855	0.029602	-0.006256	0.054016	-0.005493	-0.11276	0.12802	-0.010529	0.001678
17.058	0.00885	0.040131	-0.11948	-0.007629	-0.011902	-0.55054	0.10513	0.014801	-0.31143	-0.002289	-0.001678	-0.007324	0.26932	0.095978	0.033112	0.002899	-0.025635	0.46341	0.64651	0.13275	-0.08606	-0.000153	0.20889	0.024872	0.054932	-0.010529	0.12878	-0.003967	-0.11337	0.069427	-0.003662	0.001221
17.059	0.005341	0.069122	-0.040741	0.00824	0.003815	-0.64468	0.09491	0.016937	-0.20264	-0.006104	-0.017548	-0.015869	0.1297	0.028534	0.045776	0.000305	-0.012817	0.46646	0.70725	0.085754	-0.041504	-0.00061	0.19134	0.06012	0.051575	-0.002594	0.21729	-0.004578	-0.044556	0.053864	-0.001984	0.007172
17.06	-0.011139	0.065765	-0.061493	0.014496	-0.011749	-0.33417	0.11169	0.010681	-0.07782	-0.030975	0.004425	-0.016479	0.21469	0.043335	0.015717	-0.002136	-0.023499	0.40832	0.62668	-0.031891	-0.017242	0.029449	0.15915	0.09552	0.054932	-0.004272	0.16327	-0.003815	0.076599	0.089722	-0.001678	0.005341
17.061	0.002899	0.069427	0	0.003204	-0.002289	0.037384	0.091553	-0.008087	-0.057068	-0.025177	0.012054	-0.01358	-0.06012	0.072632	-0.0177	-0.003967	-0.081482	0.3746	0.75989	-0.18173	0.020752	0.01236	0.2063	0.097961	0.03067	-0.00946	0.30334	-0.007477	0.042572	0.1265	-0.002899	0.006561
17.062	-0.006256	0.10071	-0.042725	0.004883	0.002899	0.18097	0.054932	-0.023651	-0.072479	-0.026855	-0.01236	-0.019989	-0.2829	0.13977	0.010986	0.001984	-0.13397	0.32577	0.74081	-0.29495	0.020599	0.004272	0.18967	0.10178	0.02182	-0.013428	0.2327	-0.004272	0.03067	0.094299	-0.001831	-0.000916
